%
M48
M72
T01C0.0315
T02C0.0360
T03C0.0394
T04C0.0400
T05C0.0520
T06C0.1083
T07C0.1102
%
T01
X8033Y12000
X8033Y13500
X7533Y15500
X14033Y16000
X15533Y17500
X14033Y19500
X16033Y12000
X33033Y18250
X37033Y18250
T02
X37033Y20000
X36033Y20000
X35033Y20000
X34033Y20000
X34033Y21000
X35033Y21000
X36033Y21000
X37033Y21000
X38033Y21000
X38033Y20000
X38033Y7000
X37033Y7000
X36033Y7000
X35033Y7000
X34033Y7000
X33033Y7000
X33033Y6000
X34033Y6000
X35033Y6000
X36033Y6000
X37033Y6000
X38033Y6000
X39033Y6000
X40033Y6000
X40033Y7000
X39033Y7000
X9533Y7000
X8533Y7000
X8533Y6000
X9533Y6000
X9533Y5000
X8533Y5000
X8533Y4000
X9533Y4000
X9533Y3000
X8533Y3000
X8533Y8000
X9533Y8000
X9533Y9000
X8533Y9000
X8533Y10000
X9533Y10000
X6033Y11500
X5033Y11500
X5033Y12500
X6033Y12500
X6033Y13500
X5033Y13500
X5033Y14500
X6033Y14500
X6033Y15500
X5033Y15500
T03
X5329Y20669
X4329Y20669
X4329Y21669
X5329Y21669
X6329Y21669
X7329Y21669
X8329Y21669
X9329Y21669
X10329Y21669
X11329Y21669
X12329Y21669
X13329Y21669
X14329Y21669
X15329Y21669
X16329Y21669
X17329Y21669
X18329Y21669
X19329Y21669
X20329Y21669
X21329Y21669
X22329Y21669
X23329Y21669
X23329Y20669
X22329Y20669
X21329Y20669
X20329Y20669
X19329Y20669
X18329Y20669
X17329Y20669
X16329Y20669
X15329Y20669
X14329Y20669
X13329Y20669
X12329Y20669
X11329Y20669
X10329Y20669
X9329Y20669
X8329Y20669
X7329Y20669
X6329Y20669
T04
X29033Y10000
X30033Y10000
X31033Y10000
X32033Y10000
X33033Y10000
X34033Y10000
X35033Y10000
X36033Y10000
X37033Y10000
X38033Y10000
X39033Y10000
X40033Y10000
X41033Y10000
X42033Y10000
X43033Y10000
X44033Y10000
T05
X7033Y7000
X3033Y6000
X3033Y8000
T06
X2411Y1878
X25246Y1878
X25246Y21169
X2411Y21169
T07
X29143Y16500
X42923Y16500
M30
